<svg width="512" height="512" viewBox="0 0 512 512" fill="none" xmlns="http://www.w3.org/2000/svg">
  <defs>
    <linearGradient id="bg" x1="64" y1="52" x2="446" y2="458" gradientUnits="userSpaceOnUse">
      <stop stop-color="#2D7FF9"/>
      <stop offset="1" stop-color="#1EC8A5"/>
    </linearGradient>
    <linearGradient id="bubble" x1="312" y1="314" x2="422" y2="426" gradientUnits="userSpaceOnUse">
      <stop stop-color="#FFFFFF"/>
      <stop offset="1" stop-color="#EAF7FF"/>
    </linearGradient>
  </defs>
  <rect x="28" y="28" width="456" height="456" rx="116" fill="url(#bg)"/>
  <circle cx="388" cy="116" r="42" fill="#FFFFFF" fill-opacity="0.16"/>
  <path d="M123 360V150H171L257 269L342 150H389V360H341V228L276 322H236L171 228V360H123Z" fill="#FFFFFF"/>
  <path d="M320 314H414C425.046 314 434 322.954 434 334V384C434 395.046 425.046 404 414 404H372L342 430V404H320C308.954 404 300 395.046 300 384V334C300 322.954 308.954 314 320 314Z" fill="url(#bubble)"/>
  <circle cx="342" cy="359" r="10" fill="#2D7FF9"/>
  <circle cx="367" cy="359" r="10" fill="#2D7FF9"/>
  <circle cx="392" cy="359" r="10" fill="#2D7FF9"/>
</svg>
